<mxfile host="app.diagrams.net" modified="2021-04-07T09:01:30.890Z" agent="5.0 (Macintosh; Intel Mac OS X 10_14_6) AppleWebKit/537.36 (KHTML, like Gecko) Chrome/89.0.4389.82 Safari/537.36" etag="IfdV_kwvkUmgvf4Mi4ez" version="14.4.6" type="github">
  <diagram id="RVaA4yIAQ1JbRRIvG2Ix" name="Page-1">
    <mxGraphModel dx="1773" dy="614" grid="1" gridSize="10" guides="1" tooltips="1" connect="1" arrows="1" fold="1" page="1" pageScale="1" pageWidth="827" pageHeight="1169" math="0" shadow="0">
      <root>
        <mxCell id="0" />
        <mxCell id="1" parent="0" />
        <mxCell id="nUSIIqcSna3ShGaQ4jSA-1" value="&lt;p style=&quot;font-size: medium ; margin: 0px&quot;&gt;&lt;span style=&quot;font-family: &amp;#34;jetbrains mono,monospace&amp;#34; ; font-size: 12pt&quot;&gt; serverBootstrap.bind(&lt;/span&gt;&lt;span style=&quot;font-family: &amp;#34;jetbrains mono,monospace&amp;#34; ; font-size: 12pt ; color: rgb(23 , 80 , 235)&quot;&gt;9090&lt;/span&gt;&lt;span style=&quot;font-family: &amp;#34;jetbrains mono,monospace&amp;#34; ; font-size: 12pt&quot;&gt;).sync();&lt;/span&gt;&lt;/p&gt;" style="rounded=1;whiteSpace=wrap;html=1;" vertex="1" parent="1">
          <mxGeometry x="110" y="70" width="780" height="60" as="geometry" />
        </mxCell>
        <mxCell id="nUSIIqcSna3ShGaQ4jSA-2" value="&lt;p align=&quot;center&quot; style=&quot;font-size: medium ; margin: 0px ; line-height: 1px&quot;&gt;&lt;span style=&quot;font-size: 10pt ; color: rgb(25 , 25 , 25)&quot;&gt;ServerBootstrap.initAndRegister&lt;/span&gt;&lt;/p&gt;" style="rounded=1;whiteSpace=wrap;html=1;" vertex="1" parent="1">
          <mxGeometry x="120" y="190" width="290" height="60" as="geometry" />
        </mxCell>
        <mxCell id="nUSIIqcSna3ShGaQ4jSA-3" value="&lt;p align=&quot;center&quot; style=&quot;font-size: medium ; margin: 0px ; line-height: 1px&quot;&gt;&lt;span style=&quot;font-size: 10pt ; color: rgb(25 , 25 , 25)&quot;&gt;doBind0&lt;/span&gt;&lt;/p&gt;" style="rounded=1;whiteSpace=wrap;html=1;" vertex="1" parent="1">
          <mxGeometry x="750" y="190" width="120" height="60" as="geometry" />
        </mxCell>
        <mxCell id="nUSIIqcSna3ShGaQ4jSA-4" value="&lt;pre style=&quot;background-color: #c7edcc ; color: #080808 ; font-family: &amp;#34;jetbrains mono&amp;#34; , monospace ; font-size: 11.3pt&quot;&gt;init方法&lt;/pre&gt;" style="rounded=1;whiteSpace=wrap;html=1;" vertex="1" parent="1">
          <mxGeometry x="120" y="330" width="120" height="60" as="geometry" />
        </mxCell>
        <mxCell id="nUSIIqcSna3ShGaQ4jSA-7" value="&lt;p style=&quot;margin: 0px ; font-size: 8px&quot;&gt;&lt;span style=&quot;font-family: &amp;#34;arial&amp;#34; ; font-size: 8px&quot;&gt;在&lt;/span&gt;&lt;span style=&quot;font-family: &amp;#34;jetbrains mono,monospace&amp;#34; ; font-size: 8px&quot;&gt;pipeline中添加自定义handler和ServerBootstrapAcceptor&lt;/span&gt;&lt;/p&gt;" style="text;html=1;strokeColor=none;fillColor=none;align=center;verticalAlign=middle;whiteSpace=wrap;rounded=0;" vertex="1" parent="1">
          <mxGeometry x="-60" y="350" width="160" height="20" as="geometry" />
        </mxCell>
      </root>
    </mxGraphModel>
  </diagram>
</mxfile>
